<?xml version="1.0" encoding="UTF-8" standalone="no"?>
<!-- Created with Inkscape (http://www.inkscape.org/) -->

<svg
   width="220mm"
   height="48mm"
   viewBox="0 0 220 48"
   version="1.1"
   id="svg5"
   xmlns:xlink="http://www.w3.org/1999/xlink"
   xmlns="http://www.w3.org/2000/svg"
   xmlns:svg="http://www.w3.org/2000/svg">
  <defs
     id="defs2">
    <linearGradient
       id="linearGradient57719">
      <stop
         style="stop-color:#000080;stop-opacity:0"
         offset="0"
         id="stop57715" />
      <stop
         style="stop-color:#000080;stop-opacity:1"
         offset="0.07717022"
         id="stop78780" />
      <stop
         style="stop-color:#000080;stop-opacity:1"
         offset="0.92272443"
         id="stop79039" />
      <stop
         style="stop-color:#000080;stop-opacity:0"
         offset="1"
         id="stop57717" />
    </linearGradient>
    <linearGradient
       xlink:href="#linearGradient57719"
       id="linearGradient74023"
       gradientUnits="userSpaceOnUse"
       gradientTransform="matrix(0.99988359,0,0,0.99999196,10.299781,-6.9295194)"
       x1="-10.30098"
       y1="35.517723"
       x2="209.70079"
       y2="35.517723" />
  </defs>
  <g
     id="layer1"
     style="display:inline">
    <path
       id="path916"
       style="fill:url(#linearGradient74023);fill-opacity:1;stroke:none;stroke-width:0;stroke-linejoin:bevel;stroke-miterlimit:4;stroke-dasharray:none;stroke-opacity:1"
       d="m 52.788863,1.9293 -0.09146,0.2392601 c -0.07005,0.1834661 -0.07774,0.2642216 -0.03359,0.346746 0.07064,0.1319281 0.0758,0.4435691 0.0083,0.5115924 -0.02727,0.027486 -0.05724,0.1792447 -0.06614,0.3374445 -0.01535,0.2731303 -0.02748,0.2954211 -0.239751,0.4376959 -0.159374,0.1068232 -0.223215,0.1858606 -0.223215,0.2759498 0,0.088179 -0.07027,0.1787373 -0.232003,0.2992043 -0.342894,0.255409 -0.40573,0.3902226 -0.388042,0.8319827 0.01463,0.3656361 0.01106,0.376915 -0.156562,0.5146926 -0.09429,0.077499 -0.171294,0.1672097 -0.171032,0.1994694 2.62e-4,0.03227 -0.05031,0.123848 -0.112641,0.2030874 -0.105067,0.1335806 -0.10739,0.1541164 -0.03307,0.2831844 0.06446,0.1119491 0.08181,0.3730247 0.08991,1.3342737 0.0092,1.1048875 0.0019,1.2137923 -0.09818,1.4402095 -0.05959,0.1347119 -0.108505,0.2923643 -0.108505,0.3503633 0,0.05801 -0.0483,0.183798 -0.107475,0.279568 -0.09395,0.15216 -0.105561,0.245373 -0.09198,0.7369 l 0.0155,0.562234 -0.149843,0.111104 c -0.08239,0.06119 -0.34106,0.306488 -0.575092,0.545182 -0.234028,0.238695 -0.45325,0.434078 -0.486734,0.434078 -0.03349,0 -0.103692,-0.04703 -0.156046,-0.104902 -0.111615,-0.123329 -0.183947,-0.135737 -0.183947,-0.03101 0,0.04099 -0.06447,0.121501 -0.143128,0.178799 -0.140172,0.102116 -0.141643,0.109997 -0.08267,0.386021 0.05844,0.273549 0.05506,0.289444 -0.113672,0.570502 -0.156835,0.261245 -0.231986,0.429998 -0.240785,0.538465 -0.0016,0.02121 -0.06423,0.199015 -0.138994,0.394805 -0.07477,0.195789 -0.147414,0.450638 -0.161213,0.566368 -0.01381,0.115731 -0.05544,0.245986 -0.09249,0.289386 -0.09484,0.111111 -0.125881,0.307059 -0.158628,0.999414 -0.01574,0.332726 -0.05479,0.947824 -0.08681,1.367348 -0.03202,0.419524 -0.05623,0.826 -0.05373,0.90278 0.0034,0.101663 -0.02673,0.147705 -0.111094,0.170014 -0.06371,0.01685 -0.151411,0.10813 -0.194795,0.20257 -0.06391,0.139081 -0.118924,0.178181 -0.289355,0.207221 -0.17786,0.03031 -0.224586,0.01847 -0.303306,-0.07855 -0.05121,-0.06312 -0.140107,-0.170151 -0.197381,-0.23771 -0.0914,-0.107813 -0.136694,-0.299901 -0.106958,-0.453199 0.0053,-0.02733 -0.01921,-0.104071 -0.05477,-0.170531 -0.04974,-0.093 -0.05072,-0.151806 -0.0036,-0.255279 0.0337,-0.07394 0.06149,-0.202163 0.06149,-0.285252 0,-0.1796 -0.156277,-0.474428 -0.251635,-0.474902 -0.09963,-5.03e-4 -0.13861,-0.147674 -0.06304,-0.238743 0.05355,-0.06454 0.04811,-0.09876 -0.02946,-0.184484 -0.05638,-0.06231 -0.09878,-0.198162 -0.104374,-0.33331 -0.0052,-0.125526 -0.02418,-0.252001 -0.04185,-0.280601 -0.0177,-0.0286 -0.01272,-0.173827 0.01085,-0.322975 0.03181,-0.201217 0.02537,-0.285567 -0.02532,-0.327627 -0.129332,-0.107344 -0.243324,0.02297 -0.261451,0.299205 -0.02827,0.43066 -0.06136,0.632024 -0.122462,0.746201 -0.03209,0.05997 -0.05838,0.167721 -0.05838,0.23926 0,0.07154 -0.07313,0.291896 -0.16276,0.489889 -0.139835,0.308868 -0.154909,0.381748 -0.105924,0.514693 0.04487,0.121804 0.04031,0.18056 -0.02119,0.2744 -0.04303,0.06566 -0.07893,0.209326 -0.07957,0.318841 -0.0013,0.226053 -0.161782,0.615134 -0.32604,0.790126 -0.10344,0.110192 -0.106051,0.13559 -0.04289,0.398939 0.100123,0.417407 5.29e-4,1.107401 -0.188081,1.304302 -0.07533,0.07864 -0.193335,0.157307 -0.262487,0.174666 -0.07897,0.01982 -0.126075,0.06973 -0.126075,0.134357 0,0.07156 -0.07497,0.137109 -0.246986,0.215488 -0.338096,0.154045 -0.410262,0.101419 -0.410262,-0.300236 0,-0.238726 -0.0177,-0.309539 -0.07802,-0.309539 -0.04301,0 -0.08725,0.04755 -0.09818,0.105417 -0.01093,0.05786 -0.07471,0.20001 -0.141577,0.315741 -0.07584,0.131256 -0.118909,0.287062 -0.114708,0.413927 0.01331,0.405563 -0.327748,0.426762 -0.464517,0.02894 -0.05809,-0.168951 -0.07477,-0.17927 -0.27592,-0.166398 -0.252227,0.01617 -0.28832,-0.02658 -0.282122,-0.334859 0.0039,-0.192862 -0.01199,-0.230992 -0.09456,-0.230992 -0.188657,0 -0.265068,-0.06181 -0.265068,-0.213939 0,-0.08258 0.0434,-0.192668 0.09662,-0.244428 0.187796,-0.182611 0.181254,-0.376335 -0.02015,-0.577736 -0.0748,-0.07481 -0.181881,-0.633713 -0.181881,-0.950839 0,-0.118886 -0.02096,-0.229155 -0.0465,-0.244945 -0.02556,-0.01579 -0.06194,-0.154548 -0.08112,-0.307989 -0.05063,-0.405286 -0.202443,-0.963291 -0.368411,-1.353912 -0.150139,-0.353366 -0.180983,-0.416298 -0.352908,-0.72243 -0.07055,-0.125646 -0.102815,-0.284402 -0.103342,-0.505909 -0.0013,-0.49639 -0.02162,-0.779397 -0.07027,-0.972542 l -0.04443,-0.176216 -0.0713,0.168981 c -0.03918,0.09317 -0.0713,0.296875 -0.0713,0.452682 0,0.306768 -0.08625,0.376958 -0.223215,0.181383 -0.115492,-0.164901 -0.669983,-0.576933 -1.039095,-0.77204 -0.623417,-0.329538 -0.656397,-0.355843 -0.674815,-0.544665 -0.0094,-0.09611 -0.05128,-0.209423 -0.09353,-0.251663 -0.04223,-0.04224 -0.06614,-0.115716 -0.05322,-0.163295 0.102678,-0.378118 0.08178,-0.574944 -0.08422,-0.80718 -0.05304,-0.07421 -0.04343,-0.11195 0.05529,-0.217039 0.08732,-0.09292 0.110268,-0.162808 0.08577,-0.260447 -0.0558,-0.222367 0.05301,-0.353464 0.29297,-0.353464 0.23941,0 0.264596,-0.0567 0.07906,-0.178283 -0.2107,-0.138075 -0.252585,-0.264765 -0.160698,-0.484721 0.04406,-0.105458 0.08009,-0.203442 0.08009,-0.218072 0,-0.01462 -0.0977,-0.01081 -0.217015,0.0083 -0.204227,0.03266 -0.228542,0.0219 -0.412847,-0.177766 -0.107679,-0.116647 -0.234793,-0.211871 -0.282638,-0.211871 -0.134308,0 -0.109982,0.314441 0.04806,0.619078 0.126855,0.244511 0.131311,0.278235 0.07234,0.544149 -0.03457,0.155888 -0.0611,0.389664 -0.0589,0.51986 0.0024,0.130198 0.0066,0.40085 0.0088,0.600993 0.0024,0.20014 0.02535,0.459546 0.05167,0.576704 0.03325,0.148049 0.02923,0.235466 -0.01292,0.286285 -0.03337,0.04021 -0.08586,0.123508 -0.116776,0.185517 -0.03091,0.06201 -0.126424,0.146021 -0.212364,0.186551 -0.08594,0.04053 -0.174015,0.103869 -0.195834,0.140559 -0.02183,0.03669 -0.15206,0.108332 -0.289353,0.159161 -0.213116,0.07891 -0.382424,0.198845 -0.90578,0.6413 -0.04402,0.03722 -0.158642,0.128961 -0.254219,0.204119 -0.342087,0.269 -0.993885,1.405212 -1.217355,2.121818 -0.06767,0.216996 -0.166316,0.524544 -0.219599,0.683674 -0.09071,0.270902 -0.173273,0.656358 -0.239235,1.118269 -0.01768,0.123788 -0.07657,0.235864 -0.157078,0.299204 -0.18037,0.141897 -0.225703,0.445743 -0.07854,0.524511 0.103743,0.05553 0.217418,0.341618 0.218049,0.547766 1.61e-4,0.05286 -0.0695,0.166144 -0.155011,0.251664 -0.134283,0.134257 -0.187198,0.152521 -0.386495,0.135389 -0.29909,-0.02572 -0.352392,-0.06299 -0.352392,-0.246494 0,-0.139406 -0.01899,-0.154106 -0.238717,-0.187068 -0.190802,-0.02862 -0.259668,-0.01706 -0.343608,0.05891 -0.09031,0.08175 -0.129432,0.08629 -0.277987,0.03256 -0.09503,-0.03435 -0.308998,-0.06201 -0.475368,-0.06201 -0.231009,0 -0.35779,-0.03281 -0.536339,-0.137458 -0.418425,-0.24524 -1.326496,-0.457622 -2.098853,-0.490922 l -0.684116,-0.02946 -0.01705,-0.183966 c -0.0095,-0.101266 -0.04894,-0.219631 -0.08784,-0.263031 -0.128271,-0.143132 -0.235051,-0.547137 -0.23665,-0.894512 -0.0023,-0.52844 -0.02163,-0.564483 -0.320874,-0.605643 -0.141851,-0.01951 -0.271089,-0.05697 -0.287287,-0.0832 -0.05187,-0.08396 -0.119378,-0.05093 -0.09404,0.04599 0.03813,0.145815 -0.0746,0.390047 -0.17103,0.370517 -0.116203,-0.02354 -0.245586,-0.409847 -0.168446,-0.502807 0.04224,-0.0509 0.04151,-0.124233 -0.0026,-0.2713 -0.0713,-0.238 -0.07766,-0.409733 -0.01654,-0.447514 0.02416,-0.01493 0.130647,-5.02e-4 0.23665,0.03204 0.106001,0.03253 0.204947,0.04669 0.220116,0.03152 0.101367,-0.101378 -0.255482,-0.404379 -0.514638,-0.437179 -0.168038,-0.02127 -0.301756,-0.142348 -0.301756,-0.27285 0,-0.03786 -0.02378,-0.06873 -0.0527,-0.06873 -0.02894,0 -0.0527,0.04895 -0.0527,0.109036 0,0.138913 -0.282525,0.426207 -0.381845,0.388087 -0.06329,-0.02429 -0.06103,0.05105 0.01447,0.486788 0.04912,0.283467 0.105668,0.58981 0.126075,0.681089 0.03936,0.175976 -0.04931,0.301125 -0.106957,0.150894 -0.01777,-0.04631 -0.11255,-0.117288 -0.210299,-0.158127 -0.09775,-0.04084 -0.177746,-0.09931 -0.177746,-0.129707 0,-0.03041 -0.04886,-0.05529 -0.109024,-0.05529 -0.09397,0 -0.104976,0.0221 -0.07544,0.156578 0.04753,0.21639 0.0019,0.272254 -0.170513,0.206704 -0.203209,-0.07727 -0.281215,0.05256 -0.270237,0.451648 0.0081,0.294137 -0.0076,0.342199 -0.214948,0.6444 -0.217572,0.317076 -0.248635,0.487306 -0.08836,0.487306 0.04077,0 0.104542,0.03651 0.141578,0.08113 0.0863,0.103999 0.0085,0.188072 -0.195315,0.211871 -0.08181,0.0096 -0.30231,0.05477 -0.490353,0.100769 -0.18804,0.04599 -0.571982,0.105353 -0.853077,0.131774 -0.301625,0.02835 -0.563022,0.08186 -0.637613,0.130741 -0.107737,0.07059 -0.181472,0.07429 -0.50017,0.0248 -0.383814,-0.05956 -0.481569,-0.04322 -0.481569,0.07907 0,0.03859 -0.03718,0.08434 -0.08267,0.1018 -0.08959,0.03438 -0.285221,-0.04896 -0.285221,-0.121438 0,-0.02455 -0.04825,-0.05699 -0.106957,-0.07235 -0.07415,-0.01939 -0.155389,0.02286 -0.266103,0.138492 l -0.159145,0.166396 -0.128143,-0.161747 c -0.10288,-0.129936 -0.158681,-0.157715 -0.282638,-0.139524 -0.134845,0.01979 -0.158522,0.05022 -0.189629,0.240811 -0.01959,0.119977 -0.08419,0.305449 -0.143128,0.411858 -0.0994,0.179486 -0.100875,0.199356 -0.02067,0.279566 0.106187,0.106206 0.02067,0.750852 0.02067,0.750852 -0.167981,6.104677 -6.6081,6.542895 -9.544882,6.559215 H 0 v 1.198884 h 219.97616 v -1.198884 c -0.0841,-2.59e-4 0.083,-2.62e-4 0,-5.16e-4 v 0 c -4.40754,0.02551 -16.18048,-0.112013 -17.10025,-0.294037 -0.38067,1.59e-4 -0.41375,-0.0083 -0.45676,-0.121437 -0.0341,-0.08978 -0.15907,-0.165171 -0.47485,-0.28577 -0.47335,-0.180774 -0.56233,-0.192897 -0.7611,-0.102318 -0.0999,0.04545 -0.15089,0.04651 -0.19428,0.0031 -0.0324,-0.03231 -0.12273,-0.04625 -0.20152,-0.03049 -0.11522,0.02305 -0.18136,-0.0093 -0.33741,-0.165363 -0.18331,-0.183337 -0.21327,-0.194155 -0.54615,-0.198955 -0.1937,-0.0028 -0.40629,0.01349 -0.47279,0.03566 -0.24466,0.08163 -0.28335,-0.02898 -0.26456,-0.75602 0.0153,-0.590915 0.0297,-0.678467 0.13435,-0.811314 0.10629,-0.135066 0.10987,-0.159122 0.0393,-0.25993 -0.0427,-0.06114 -0.0775,-0.174502 -0.0775,-0.251661 0,-0.07716 -0.0457,-0.195757 -0.10128,-0.264066 l -0.10125,-0.124538 -0.0553,0.144692 c -0.0305,0.07957 -0.0769,0.144694 -0.10335,0.144694 -0.0265,0 -0.16325,-0.08258 -0.30381,-0.183451 -0.1406,-0.100868 -0.36225,-0.25794 -0.49243,-0.349329 -0.31872,-0.223772 -0.40602,-0.343465 -0.44591,-0.609777 -0.0366,-0.244254 -0.1328,-0.309227 -0.1328,-0.08992 0,0.146814 -0.087,0.342239 -0.17878,0.402558 -0.10248,0.06723 -5.37413,0.04899 -5.52357,-0.01912 -0.0978,-0.04459 -0.1551,-0.136384 -0.21649,-0.347779 -0.1048,-0.360531 -0.16138,-0.338449 -0.17568,0.06873 -0.006,0.161515 -0.0755,0.258017 -0.51412,0.710027 -0.48805,0.502993 -0.65001,0.613593 -0.65001,0.444414 0,-0.0434 -0.0197,-0.07906 -0.0439,-0.07906 -0.0558,0 -0.16637,0.238633 -0.16637,0.359147 0,0.05007 -0.0391,0.146832 -0.0868,0.214972 -0.0822,0.117294 -0.0808,0.128748 0.0248,0.20929 0.15838,0.120752 0.21744,0.632005 0.0946,0.81958 -0.0842,0.128456 -0.10678,0.133325 -0.64382,0.133325 -0.55522,0 -0.55668,-2.28e-4 -0.70995,-0.164332 -0.14499,-0.155229 -0.16854,-0.162547 -0.42835,-0.13074 -0.15135,0.01852 -0.37609,0.04103 -0.49913,0.05013 -0.13688,0.01011 -0.26967,0.05943 -0.34206,0.127123 -0.11371,0.106444 -0.35544,0.186966 -1.38012,0.459916 -0.46286,0.12329 -0.73384,0.177071 -1.052,0.208771 -0.0868,0.0086 -0.19961,0.03277 -0.25061,0.05374 -0.051,0.02098 -0.12231,0.01521 -0.15811,-0.01292 -0.0394,-0.03093 -0.2099,-0.03533 -0.43145,-0.01137 -0.32729,0.03541 -0.91954,-0.02958 -0.99104,-0.10852 -0.0124,-0.01376 -0.0391,-0.136514 -0.0589,-0.27285 -0.0305,-0.20991 -0.0195,-0.261512 0.0698,-0.33796 0.13588,-0.116344 0.095,-0.176731 -0.11884,-0.176731 -0.20621,0 -0.29658,0.0802 -0.29658,0.263545 0,0.170595 -0.24999,0.421577 -0.43456,0.436147 -0.0738,0.0058 -0.1949,0.07588 -0.2692,0.156061 -0.13456,0.145252 -0.13777,0.145871 -0.9869,0.17208 -0.47818,0.01476 -0.8813,0.05057 -0.9187,0.08165 -0.0902,0.07489 -0.73276,0.0806 -0.82105,0.0072 -0.0452,-0.03756 -0.0984,-0.04104 -0.14777,-0.0098 -0.0915,0.05792 -0.6126,0.06005 -0.75801,0.0031 -0.0572,-0.02238 -0.16105,-0.01245 -0.23665,0.02274 -0.0835,0.03892 -0.27806,0.05364 -0.51153,0.03824 -0.31333,-0.02066 -0.38092,-0.04175 -0.40252,-0.124538 -0.0399,-0.152508 -0.24647,-0.131317 -0.24647,0.02532 0,0.182193 -0.13656,0.28206 -0.27127,0.19792 -0.0714,-0.04463 -0.12556,-0.04894 -0.16895,-0.01292 -0.058,0.04818 -0.24607,0.04736 -1.71185,-0.0093 -0.16276,-0.0063 -0.29358,-0.03747 -0.30537,-0.07286 -0.0132,-0.03958 -0.0865,-0.0513 -0.20203,-0.03255 -0.1023,0.01661 -0.18084,0.0067 -0.18084,-0.02222 0,-0.05309 -1.48388,-0.04669 -1.57027,0.0067 -0.10597,0.0655 -0.62579,0.09473 -0.66138,0.03721 -0.0223,-0.03609 -0.11198,-0.04746 -0.23046,-0.02894 -0.10671,0.0167 -0.29963,0.0062 -0.42886,-0.02325 -0.13269,-0.03028 -0.25898,-0.03393 -0.28987,-0.0083 -0.0476,0.03947 -0.41182,0.06512 -0.73785,0.05168 -0.37295,-0.01537 -0.48075,-0.02869 -0.53944,-0.06666 -0.0363,-0.0235 -0.14588,-0.01405 -0.24337,0.02119 -0.16377,0.05923 -0.18841,0.05368 -0.32811,-0.077 -0.12917,-0.120848 -0.18073,-0.136784 -0.35445,-0.108002 -0.11184,0.01852 -0.31055,0.08118 -0.44127,0.139008 -0.35839,0.158553 -0.85463,0.04028 -0.85463,-0.203603 0,-0.03892 -0.0295,-0.07241 -0.0656,-0.07441 -0.0362,-0.0021 -0.17475,-0.0082 -0.30796,-0.01344 -0.19887,-0.0078 -0.28121,-0.04482 -0.46038,-0.206704 -0.12002,-0.108436 -0.24195,-0.196885 -0.27075,-0.196885 -0.0289,0 -0.10207,-0.04986 -0.16276,-0.110588 -0.0607,-0.06072 -0.26651,-0.155245 -0.45729,-0.209805 -0.34279,-0.09808 -0.35102,-0.09763 -0.70323,0.0072 -0.19599,0.05838 -0.37476,0.137686 -0.39735,0.176217 -0.0226,0.03852 -0.11354,0.106708 -0.20203,0.151927 -0.0885,0.04521 -0.26217,0.183136 -0.38546,0.306438 l -0.22373,0.224275 -0.45161,0.01654 c -0.24826,0.0091 -0.48359,0.0434 -0.5229,0.07596 -0.0483,0.04006 -0.55944,0.06336 -1.58266,0.07286 -1.30533,0.01217 -1.52436,0.0033 -1.60385,-0.06718 -0.0506,-0.04491 -0.092,-0.126059 -0.092,-0.180348 0,-0.05429 -0.0414,-0.113103 -0.092,-0.130224 -0.0506,-0.01712 -0.14261,-0.08989 -0.2041,-0.161747 -0.10497,-0.122837 -0.11907,-0.125533 -0.23665,-0.04857 -0.11758,0.07697 -0.13255,0.07382 -0.2537,-0.05219 -0.1135,-0.118057 -0.51495,-0.416134 -0.87477,-0.649566 -0.0669,-0.0434 -0.21838,-0.147996 -0.33638,-0.232027 -0.2126,-0.151402 -0.22275,-0.152701 -1.09438,-0.173632 -0.4838,-0.01161 -1.00966,-0.02593 -1.16878,-0.03152 l -0.28936,-0.01033 -0.016,-0.282668 c -0.009,-0.15568 8e-4,-0.321601 0.0217,-0.368451 0.0209,-0.04685 0.0323,-0.194408 0.0253,-0.328141 -0.0117,-0.215367 0.007,-0.261578 0.16017,-0.40514 0.14664,-0.137032 0.17283,-0.19594 0.16483,-0.37982 -0.005,-0.119622 -0.0359,-0.249796 -0.0687,-0.289386 -0.0327,-0.03959 -0.0461,-0.09417 -0.0295,-0.120921 0.0165,-0.02675 -0.0367,-0.132502 -0.11833,-0.235125 -0.14768,-0.185874 -0.14834,-0.189046 -0.13744,-0.90123 0.0108,-0.705805 -0.0274,-0.880415 -0.15449,-0.700212 -0.0318,0.04504 -0.0936,0.134982 -0.13694,0.19947 -0.14348,0.213246 -0.34021,0.369287 -0.44695,0.354498 -0.0974,-0.01349 -0.10767,-0.06723 -0.13847,-0.724498 -0.019,-0.405494 -0.0122,-0.750056 0.0155,-0.803044 0.0267,-0.05104 0.0331,-0.175907 0.0139,-0.2775 -0.0278,-0.148042 -0.007,-0.226204 0.10334,-0.393772 0.076,-0.115002 0.11617,-0.209288 0.0889,-0.209288 -0.0273,0 -0.086,-0.03638 -0.13072,-0.08113 -0.0659,-0.06599 -0.0799,-0.212071 -0.0739,-0.773073 0.005,-0.520913 -0.009,-0.697234 -0.0599,-0.714162 -0.0995,-0.03319 -0.15878,0.09333 -0.15966,0.341578 -0.001,0.260337 -0.11742,0.411097 -0.25888,0.335377 -0.18511,-0.09907 -0.23775,-0.221152 -0.23975,-0.560168 -0.001,-0.184956 -0.018,-0.336771 -0.0377,-0.336928 -0.0985,-7.94e-4 -0.19875,-0.175281 -0.16896,-0.294036 0.0179,-0.07129 0.004,-0.162405 -0.0315,-0.205154 -0.0473,-0.0567 -0.0585,-0.358199 -0.0434,-1.14359 0.0183,-0.949902 0.0323,-1.090204 0.1297,-1.285183 0.10953,-0.218564 0.10972,-0.219456 0.005,-0.324009 -0.0801,-0.08009 -0.1085,-0.189048 -0.1204,-0.464567 -0.017,-0.392834 -0.0153,-0.372497 -0.0563,-0.84697 -0.0291,-0.337074 -0.0902,-0.420087 -0.15448,-0.210321 -0.0558,0.182007 -0.12291,0.241365 -0.23768,0.211355 -0.16377,-0.04283 -0.2093,-0.180621 -0.13332,-0.401523 0.0369,-0.10723 0.0944,-0.222524 0.12815,-0.256313 0.067,-0.06696 0.0863,-0.704276 0.0222,-0.732766 -0.0217,-0.0096 -0.088,-0.0889 -0.14727,-0.175698 -0.31525,-0.460678 -0.45987,-1.14677 -0.31725,-1.503255 0.0626,-0.156529 0.0683,-0.237862 0.0253,-0.349847 -0.0305,-0.08018 -0.0431,-0.22843 -0.0274,-0.329693 0.0156,-0.101265 0.007,-0.279075 -0.0202,-0.394805 -0.0332,-0.143492 -0.029,-0.2649455 0.0129,-0.3818856 0.052,-0.1452758 0.0476,-0.1850045 -0.0284,-0.2609639 -0.0821,-0.082119 -0.0967,-0.082669 -0.17362,-0.0057 -0.0612,0.06116 -0.0703,0.1109571 -0.0336,0.1824165 0.0276,0.05401 0.0414,0.370586 0.0305,0.703311 -0.026,0.786064 -0.0258,0.82934 0.003,1.077962 0.0401,0.34433 -0.195,1.089409 -0.3901,1.236607 -0.14256,0.107547 -0.20784,0.454097 -0.14364,0.762738 0.024,0.115731 0.0571,0.281133 0.0739,0.367933 0.0167,0.0868 0.054,0.186847 0.0822,0.222207 0.0347,0.04351 0.0248,0.0903 -0.0295,0.144693 -0.1026,0.10264 -0.24153,0.103404 -0.27333,0.0016 -0.0805,-0.257971 -0.0791,-0.255827 -0.14468,-0.190168 -0.0753,0.07526 -0.0804,0.109647 -0.13073,0.900196 -0.0294,0.461844 -0.0626,0.640198 -0.13899,0.75292 -0.099,0.146066 -0.0986,0.149597 0.0145,0.35088 0.0629,0.111907 0.11632,0.270165 0.11832,0.351913 0.002,0.08175 0.0153,0.527707 0.0284,0.99063 0.0255,0.896794 -0.0465,1.334653 -0.23871,1.45468 -0.0634,0.03959 -0.0815,0.110483 -0.0672,0.260447 0.0265,0.278079 -0.0167,0.422612 -0.17672,0.595308 -0.18759,0.202454 -0.28831,0.111783 -0.28831,-0.258897 0,-0.169571 -0.0277,-0.299812 -0.0718,-0.336411 -0.10756,-0.08932 -0.19145,0.281675 -0.20565,0.909498 -0.0104,0.459101 -0.0245,0.527421 -0.11729,0.578771 -0.0579,0.03202 -0.11513,0.06423 -0.12763,0.07183 -0.0124,0.0076 0.0321,0.08764 0.0987,0.177764 0.086,0.116403 0.11926,0.23085 0.11627,0.395321 -0.003,0.127353 0.0156,0.284047 0.0398,0.348298 0.024,0.06425 0.0226,0.341632 -0.003,0.616495 -0.0258,0.274861 -0.0497,0.618073 -0.0527,0.762738 -0.003,0.144661 -0.0297,0.293004 -0.0584,0.329176 -0.0311,0.03921 -0.17678,0.06563 -0.36119,0.06563 -0.41297,0 -0.51979,-0.101382 -0.51979,-0.493507 0,-0.178563 -0.0273,-0.305511 -0.0739,-0.344162 -0.0567,-0.04702 -0.0788,-0.0453 -0.0961,0.0067 -0.0124,0.03726 -0.0657,0.0676 -0.11833,0.0677 -0.15645,2.65e-4 -0.29613,0.343141 -0.31622,0.774625 -0.0249,0.535766 -0.0624,0.82447 -0.13693,1.053674 -0.0513,0.15923 -0.0504,0.225367 0.007,0.342095 0.0847,0.173129 0.10898,0.750881 0.0429,1.024734 -0.0564,0.23376 -0.25561,0.561202 -0.3431,0.564303 -0.0342,0.0013 -0.0772,-0.04496 -0.0956,-0.102837 -0.0518,-0.163369 -0.3807,-0.147719 -0.44489,0.02119 -0.0702,0.184693 -0.1305,0.205394 -0.64123,0.221174 -0.46153,0.01426 -0.52534,-0.0065 -0.55184,-0.181383 -0.0155,-0.102135 -0.0196,-0.104032 -0.35135,-0.156061 -0.26607,-0.04173 -0.30924,-0.03605 -0.35343,0.04651 -0.0276,0.05166 -0.12102,0.14399 -0.20771,0.205669 -0.14547,0.10361 -0.1665,0.105894 -0.27489,0.02998 -0.17279,-0.121041 -0.49736,-0.107645 -0.56735,0.02325 -0.0934,0.17446 -0.21965,0.133135 -0.20048,-0.06563 l 0.0165,-0.171049 -0.35291,-0.0155 c -0.32258,-0.01417 -0.36292,-0.02878 -0.46348,-0.170014 -0.0753,-0.105676 -0.12067,-0.275689 -0.14417,-0.536912 l -0.0346,-0.382405 -0.0377,0.32556 c -0.0209,0.1791 -0.0675,0.380169 -0.10334,0.446999 l -0.0651,0.121953 -0.0444,-0.158127 c -0.0242,-0.0868 -0.0349,-0.488938 -0.0243,-0.893995 0.0167,-0.637046 0.0341,-0.762182 0.13124,-0.924484 0.0759,-0.126843 0.10872,-0.258631 0.0997,-0.407207 -0.0114,-0.197335 -0.0264,-0.219877 -0.14726,-0.220139 -0.074,-1.51e-4 -0.17644,-0.03045 -0.22734,-0.0677 -0.0849,-0.06194 -0.0914,-0.172843 -0.076,-1.295003 l 0.0171,-1.226786 0.18032,-0.150378 c 0.16995,-0.141855 0.17617,-0.158551 0.11109,-0.296622 -0.0379,-0.08047 -0.10073,-0.3592 -0.14003,-0.619595 -0.0971,-0.644279 -0.27862,-0.994586 -0.64071,-1.23764 -0.15201,-0.102047 -0.30737,-0.246086 -0.34568,-0.319875 -0.0832,-0.160245 -0.10351,-1.16216 -0.0377,-1.857752 l 0.0444,-0.469218 -0.15242,-0.128157 c -0.16674,-0.140312 -0.24432,-0.263348 -0.3095,-0.490922 -0.0327,-0.114065 -0.0184,-0.179793 0.0625,-0.282668 0.0581,-0.07376 0.12792,-0.215514 0.15552,-0.315224 0.0424,-0.153318 0.0308,-0.212195 -0.076,-0.381369 -0.0695,-0.11002 -0.16648,-0.23373 -0.21546,-0.274399 -0.2079,-0.172563 -0.24886,-0.412475 -0.30176,-1.763703 -0.0282,-0.72224 -0.0701,-1.346621 -0.093,-1.387501 -0.0408,-0.07289 -0.0818,0.553241 -0.13124,1.998828 -0.0282,0.825376 -0.0853,1.012643 -0.40769,1.342026 -0.19866,0.202953 -0.21192,0.23448 -0.17722,0.42116 0.0206,0.110896 0.0955,0.278092 0.16637,0.371551 0.12549,0.165341 0.12692,0.17422 0.0408,0.341578 -0.0487,0.0946 -0.1812,0.264557 -0.29399,0.377752 -0.14245,0.142944 -0.19308,0.231386 -0.16638,0.289386 0.0211,0.04594 0.0431,0.450705 0.0481,0.899162 0.005,0.448457 0.0263,0.878153 0.047,0.954973 0.05,0.185126 -0.14504,0.526872 -0.36996,0.648017 -0.0919,0.04949 -0.21862,0.159785 -0.28161,0.244945 -0.13295,0.179821 -0.4349,0.87686 -0.4299,0.992696 0.0163,0.38382 -0.003,0.556886 -0.0723,0.66352 -0.0778,0.118752 -0.0737,0.132245 0.0837,0.272849 l 0.16534,0.147793 0.0217,1.067627 c 0.0128,0.626459 8e-4,1.092607 -0.0279,1.128087 -0.0273,0.03326 -0.0577,0.119389 -0.0677,0.191719 -0.0141,0.101908 -0.0534,0.135545 -0.17568,0.149342 -0.0868,0.0098 -0.18689,0.04166 -0.22219,0.0708 -0.0872,0.07211 -0.027,0.490258 0.10438,0.725016 0.0859,0.153674 0.10169,0.282607 0.0987,0.827847 -0.002,0.355313 -0.0268,0.690373 -0.0558,0.744654 -0.0291,0.05427 -0.12198,0.112866 -0.20617,0.129705 -0.121,0.02421 -0.15294,0.05846 -0.15294,0.164329 0,0.257983 -0.0771,0.288336 -0.70737,0.278536 l -0.58026,-0.0088 -0.12349,-0.162263 c -0.0924,-0.121199 -0.12013,-0.219874 -0.11213,-0.392736 0.01,-0.20064 -0.005,-0.234467 -0.10851,-0.260449 -0.12728,-0.03193 -0.29553,-0.296187 -0.24284,-0.381366 0.0174,-0.02814 -0.0181,-0.09774 -0.0791,-0.154513 -0.0609,-0.05677 -0.11109,-0.126991 -0.11109,-0.156061 0,-0.02901 -0.0411,-0.04622 -0.0909,-0.03772 -0.0606,0.01032 -0.0912,-0.01918 -0.092,-0.0894 -7.9e-4,-0.06017 -0.0546,-0.12805 -0.12607,-0.15813 -0.0711,-0.02993 -0.16668,-0.148744 -0.22167,-0.275947 -0.0532,-0.122964 -0.1214,-0.22376 -0.15139,-0.22376 -0.0299,0 -0.0543,-0.05849 -0.0543,-0.130221 0,-0.144498 -0.14003,-0.535988 -0.23561,-0.65887 -0.0699,-0.0898 -0.16554,-0.406114 -0.21133,-0.697109 -0.0397,-0.252807 -0.11665,-0.252807 -0.16225,0 -0.0744,0.412993 -0.23389,0.432765 -0.50844,0.06304 -0.21749,-0.292884 -0.23692,-0.372247 -0.11574,-0.472836 0.0549,-0.04559 0.0762,-0.137135 0.0656,-0.280601 -0.0131,-0.177633 -0.0375,-0.217941 -0.14727,-0.243913 -0.12999,-0.03083 -0.13123,-0.03589 -0.13175,-0.606674 -5.3e-4,-0.550146 -0.008,-0.590236 -0.17102,-0.886244 -0.13392,-0.243529 -0.17109,-0.372718 -0.17206,-0.604609 -0.001,-0.175617 -0.0331,-0.336611 -0.0791,-0.397389 -0.0424,-0.05616 -0.077,-0.180221 -0.077,-0.27595 0,-0.221101 -0.0819,-0.226553 -0.12556,-0.0083 -0.0183,0.09127 -0.0627,0.201505 -0.0987,0.244945 -0.0372,0.04494 -0.066,0.228464 -0.0667,0.42581 -10e-4,0.320155 -0.0787,0.588282 -0.29452,1.016983 -0.0253,0.05024 -0.046,0.3 -0.046,0.555001 0,0.478299 -0.0415,0.589624 -0.22064,0.589624 -0.11956,0 -0.12921,0.292657 -0.0145,0.444413 0.14347,0.18972 0.0899,0.368167 -0.26765,0.89193 -0.26918,0.394248 -0.3714,0.504873 -0.46659,0.504873 -0.1849,0 -0.23313,-0.09893 -0.25733,-0.531229 -0.019,-0.338981 -0.0425,-0.417456 -0.16328,-0.547765 l -0.14053,-0.151928 0.0238,-0.738967 c 0.0132,-0.406494 0.0259,-0.807753 0.0279,-0.891411 0.002,-0.08367 0.0433,-0.195827 0.092,-0.249595 0.0824,-0.09167 0.082,-0.104235 -0.005,-0.200503 -0.0632,-0.06981 -0.10879,-0.2506 -0.14208,-0.565336 -0.0463,-0.437237 -0.0588,-0.471025 -0.22788,-0.610294 -0.16194,-0.133368 -0.18202,-0.181639 -0.21392,-0.505391 -0.0351,-0.356354 -0.037,-0.359108 -0.3374,-0.615462 -0.41782,-0.356498 -0.47485,-0.472143 -0.47485,-0.961691 0,-0.336533 -0.0188,-0.426658 -0.10748,-0.521927 -0.21244,-0.228051 -0.26093,-0.131949 -0.26093,0.51831 v 0.467668 l -0.36067,0.360699 c -0.30527,0.30529 -0.37781,0.413898 -0.47329,0.709511 -0.0621,0.192058 -0.11264,0.384205 -0.11264,0.426844 0,0.04263 -0.0429,0.0913 -0.0956,0.108003 -0.116,0.03682 -0.34142,0.556223 -0.29452,0.678506 0.0491,0.127888 -0.0161,0.332253 -0.14314,0.450615 -0.12199,0.113626 -0.11693,0.235781 0.0253,0.614944 0.0567,0.151068 0.0801,0.402465 0.0791,0.841286 -0.002,0.612754 -0.0399,0.793921 -0.18395,0.87901 -0.046,0.02695 -0.0601,0.08899 -0.0393,0.171563 0.018,0.07175 0.005,0.163582 -0.0305,0.205672 -0.0348,0.04176 -0.0477,0.09965 -0.0295,0.12919 0.0627,0.101467 -0.0722,0.458924 -0.19376,0.513142 l -0.11781,0.05271 0.11729,0.06253 c 0.0933,0.04995 0.11729,0.109272 0.11729,0.288867 0,0.273632 -0.14057,0.425502 -0.43505,0.470254 -0.16008,0.02431 -0.2111,0.01045 -0.26249,-0.07183 -0.0415,-0.06642 -0.12245,-0.1018 -0.23149,-0.1018 -0.18828,0 -0.33327,-0.115199 -0.33327,-0.265097 0,-0.06796 -0.0253,-0.09028 -0.0801,-0.06925 -0.0496,0.01905 -0.0688,0.06756 -0.0501,0.126605 0.0367,0.115545 -0.14462,0.230201 -0.29969,0.189651 -0.0617,-0.01614 -0.14483,0.01418 -0.20512,0.07441 -0.1048,0.104798 -0.38756,0.138214 -0.44076,0.0522 -0.0463,-0.07486 -0.4673,-0.106124 -1.81724,-0.135392 -2.31855,-0.05028 -3.43644,-0.107166 -3.59111,-0.182934 -0.11176,-0.05478 -0.1605,-0.05702 -0.20771,-0.0098 -0.0683,0.06827 -0.27703,0.07767 -0.58439,0.02687 -0.20627,-0.034 -0.31168,-0.154659 -0.19738,-0.225308 0.0433,-0.02678 0.002,-0.09339 -0.13228,-0.210836 -0.18163,-0.159511 -0.2167,-0.170182 -0.49758,-0.149862 -0.32578,0.02357 -0.65412,0.198161 -0.69963,0.372067 -0.023,0.08808 -0.0888,0.09341 -0.8882,0.07235 -0.74603,-0.01966 -0.89275,-0.03808 -1.08043,-0.133841 -0.26146,-0.133397 -0.36632,-0.138432 -0.49242,-0.02429 -0.0864,0.07818 -0.16403,0.07983 -0.81949,0.02015 -0.55876,-0.05087 -0.77633,-0.05178 -0.95229,-0.0041 -0.1345,0.0364 -0.34258,0.04747 -0.5074,0.02687 -0.17438,-0.02178 -0.34565,-0.01085 -0.45573,0.02894 -0.12084,0.04365 -0.25035,0.04896 -0.4113,0.01705 -0.14966,-0.02964 -0.45531,-0.0232 -0.84171,0.01757 -0.33365,0.03522 -0.82384,0.06548 -1.08974,0.06718 -0.27103,0.0016 -0.49842,0.0265 -0.51722,0.05684 -0.0476,0.07701 -0.98873,0.05502 -1.14656,-0.02687 -0.16294,-0.08455 -0.81802,-0.04403 -0.93421,0.05788 -0.0457,0.04006 -0.1729,0.07286 -0.28315,0.07286 -0.11846,0 -0.22439,0.03294 -0.25886,0.0801 -0.047,0.06421 -0.1071,0.07052 -0.30745,0.03307 -0.21807,-0.04077 -0.26934,-0.03192 -0.40922,0.07131 -0.11791,0.08701 -0.26722,0.127068 -0.56993,0.153479 l -0.40975,0.03617 -0.31208,0.315741 c -0.17158,0.173671 -0.39478,0.396682 -0.49604,0.49609 -0.18094,0.177639 -0.31571,0.232842 -0.31571,0.129192 0,-0.08782 -0.12294,-0.05559 -0.28056,0.07338 -0.0823,0.06734 -0.14428,0.166771 -0.13848,0.221689 0.006,0.05477 0.008,0.127179 0.005,0.161231 -0.01,0.09943 -0.57819,0.332793 -0.81071,0.332793 -0.12911,0 -0.25305,0.0362 -0.31468,0.09198 -0.0897,0.08121 -0.28254,0.09671 -1.63485,0.13074 -0.84317,0.02122 -1.69845,0.06452 -1.900952,0.09612 -0.202508,0.03161 -1.096941,0.07005 -1.987245,0.08526 -1.716656,0.02935 -1.832995,0.01588 -1.718039,-0.198951 0.07749,-0.144803 -0.02429,-0.126613 -0.183949,0.03307 -0.119849,0.119863 -0.162577,0.130236 -0.436096,0.10542 -0.599575,-0.05443 -0.857657,-0.09358 -0.882532,-0.133842 -0.01392,-0.02252 -0.121247,-0.01638 -0.238716,0.01344 -0.141192,0.03581 -0.252812,0.03655 -0.329144,0.0026 -0.06984,-0.03126 -0.354363,-0.03735 -0.720284,-0.0155 -0.913804,0.05459 -2.308236,0.0065 -2.446594,-0.08423 -0.08317,-0.0545 -0.456071,-0.08897 -1.397684,-0.12919 -0.706297,-0.03017 -1.343449,-0.06909 -1.41577,-0.08682 -0.07232,-0.01773 -0.164053,-0.02703 -0.204099,-0.02015 -0.189137,0.03246 -0.309646,-0.05302 -0.397345,-0.282667 -0.05803,-0.151981 -0.140628,-0.260883 -0.230967,-0.304372 -0.103765,-0.04995 -0.14111,-0.107719 -0.14261,-0.220656 -0.0027,-0.20137 -0.09922,-0.226132 -0.246983,-0.06356 l -0.119361,0.131259 -0.630895,-0.05323 c -0.400742,-0.03381 -0.661888,-0.08069 -0.714601,-0.12764 -0.106352,-0.09472 -0.186959,-0.09395 -0.223734,0.0021 -0.0227,0.05917 -0.109903,0.07083 -0.398379,0.05271 -0.341212,-0.02143 -0.373835,-0.01434 -0.431449,0.09509 -0.08769,0.166536 -0.14707,0.195455 -0.402511,0.19637 -0.146726,5.29e-4 -0.321175,-0.05037 -0.502752,-0.147276 l -0.277987,-0.148312 -0.135893,0.148312 c -0.180611,0.197117 -0.23813,0.186906 -0.33586,-0.05736 -0.09029,-0.225681 -0.17469,-0.265965 -0.554939,-0.267166 -0.146253,-5.3e-4 -0.268344,-0.0307 -0.305889,-0.07597 -0.09024,-0.108743 -0.03644,-1.362622 0.06097,-1.420573 0.0081,-0.0048 0.08581,-0.0535 0.172578,-0.108002 l 0.158112,-0.09922 -0.173612,-0.04496 c -0.09537,-0.02471 -0.180317,-0.07354 -0.189116,-0.10852 -0.0087,-0.03499 -0.04572,-0.146263 -0.08215,-0.247526 -0.03644,-0.101267 -0.0822,-0.267185 -0.101276,-0.368451 -0.03033,-0.161037 -0.05375,-0.183966 -0.189628,-0.183969 -0.112369,0 -0.173076,0.03534 -0.219601,0.128674 -0.145464,0.291807 -0.378892,0.370546 -0.773506,0.260964 -0.174967,-0.04859 -0.219142,-0.09276 -0.313122,-0.315222 -0.06013,-0.142347 -0.139072,-0.258897 -0.175679,-0.258897 -0.107328,0 -0.333791,-0.378018 -0.333791,-0.557584 0,-0.151238 -0.02011,-0.170603 -0.241301,-0.232543 -0.18848,-0.05278 -0.259232,-0.104658 -0.322423,-0.237192 -0.05945,-0.1247 -0.138427,-0.188102 -0.297621,-0.23771 -0.119215,-0.03715 -0.305617,-0.115093 -0.414398,-0.173632 -0.142854,-0.07687 -0.213795,-0.09055 -0.255252,-0.04909 -0.03816,0.03817 -0.112805,0.04135 -0.2227,0.0098 -0.27878,-0.07996 -0.653744,-0.05881 -0.708918,0.03979 -0.02677,0.04784 -0.116802,0.09414 -0.199965,0.102834 -0.223031,0.02336 -0.571073,0.102565 -0.641746,0.146245 -0.08925,0.05517 -0.07677,0.427543 0.01705,0.505393 0.10322,0.08563 0.101777,0.389466 -0.0026,0.475934 -0.06902,0.05729 -0.104962,0.04211 -0.23355,-0.0987 -0.08365,-0.09159 -0.200641,-0.166914 -0.259386,-0.166914 -0.115072,0 -0.267136,0.236023 -0.267136,0.414441 0,0.139281 -0.137366,0.269748 -0.284704,0.269748 -0.06581,0 -0.1945,0.03715 -0.285738,0.08268 -0.167658,0.08366 -0.768221,0.08194 -1.218905,-0.0036 -0.163183,-0.03097 -0.208628,-0.01355 -0.381328,0.149345 -0.216822,0.204508 -0.233338,0.253527 -0.117292,0.349845 0.04493,0.03729 0.07905,0.15227 0.07905,0.266648 0,0.110481 0.02477,0.216258 0.05529,0.235128 0.119626,0.07394 0.02291,0.198619 -0.160695,0.207221 -0.101254,0.0047 -0.204194,-0.0018 -0.228901,-0.01447 -0.02471,-0.01275 -0.202496,-0.03244 -0.394762,-0.04341 -0.192271,-0.01095 -0.498036,-0.02856 -0.679983,-0.03927 -0.181941,-0.01072 -0.345082,-0.03351 -0.362208,-0.05064 -0.01714,-0.01715 -0.0722,-0.0094 -0.122459,0.01757 -0.05025,0.0269 -0.106299,0.03429 -0.124526,0.01602 -0.03139,-0.03138 -0.530575,-0.06813 -1.019458,-0.07493 -0.122951,-0.0016 -0.223732,-0.0275 -0.223732,-0.05736 0,-0.03696 -0.02106,-0.03695 -0.06614,5.16e-4 -0.06527,0.05418 -0.442569,0.04519 -0.499652,-0.01189 -0.01611,-0.01611 -0.05648,-0.0067 -0.08939,0.02067 -0.03809,0.03161 -0.131748,0.02443 -0.258355,-0.01912 l -0.19893,-0.06821 0.154493,-0.154513 c 0.123623,-0.123969 0.148826,-0.187548 0.128879,-0.323489 -0.02231,-0.151979 -0.04248,-0.169499 -0.200483,-0.169499 -0.284661,0 -0.530889,-0.346649 -0.485184,-0.683673 0.01505,-0.110967 -0.06797,-0.473616 -0.108509,-0.473354 -0.01847,1.12e-4 -0.07693,0.105261 -0.129691,0.233578 -0.126221,0.306982 -0.19676,0.363198 -0.335343,0.266132 -0.06933,-0.04857 -0.121886,-0.162186 -0.144676,-0.314191 -0.04234,-0.282422 -0.129042,-0.30244 -0.244401,-0.05581 -0.06675,0.142706 -0.0743,0.246777 -0.03824,0.510559 0.05646,0.412911 0.03625,0.464507 -0.178783,0.463533 -0.255475,-0.0013 -0.292557,-0.04665 -0.353941,-0.430979 -0.09003,-0.563658 -0.246849,-0.906865 -0.522905,-1.146174 -0.409288,-0.354803 -0.48103,-0.436043 -0.509986,-0.57567 -0.04914,-0.237009 -0.10004,-0.288177 -0.49862,-0.503841 -0.74121,-0.401053 -0.78539,-0.437164 -0.78539,-0.635616 0,-0.232125 -0.07364,-0.225871 -0.308471,0.02636 -0.181549,0.194994 -0.778188,0.592615 -1.038059,0.691424 -0.08357,0.03178 -0.138765,0.115526 -0.17878,0.271815 -0.03181,0.124237 -0.06644,0.251654 -0.07699,0.283703 -0.01056,0.03205 -0.09046,0.07257 -0.177228,0.08992 -0.08677,0.01736 -0.251691,0.121273 -0.366861,0.230992 -0.212806,0.202742 -0.232481,0.251482 -0.552873,1.383369 -0.05924,0.209284 -0.08578,0.238403 -0.230968,0.252693 -0.151387,0.0149 -0.257914,0.09517 -0.501718,0.377238 -0.108512,0.12553 -0.366416,0.141133 -0.460384,0.0279 -0.03585,-0.04319 -0.152785,-0.102276 -0.260418,-0.131256 -0.1288,-0.03469 -0.217066,-0.0987 -0.25732,-0.187066 -0.07486,-0.164247 -0.081,-0.794289 -0.0083,-0.839221 0.107927,-0.06671 0.05759,-0.390691 -0.07905,-0.509525 -0.07975,-0.06935 -0.131242,-0.170408 -0.131242,-0.256829 0,-0.103406 -0.02569,-0.14069 -0.09249,-0.135391 -0.08115,0.0064 -0.09331,-0.05544 -0.106443,-0.522444 -0.01416,-0.503936 -0.0084,-0.536542 0.118327,-0.673339 0.07328,-0.07908 0.132791,-0.155348 0.132791,-0.169497 0,-0.04689 -0.23537,-0.362848 -0.302272,-0.405657 -0.112643,-0.07207 -0.230719,-0.352492 -0.195314,-0.46405 0.02101,-0.06621 -2.64e-4,-0.143731 -0.05632,-0.205671 -0.05765,-0.06376 -0.0758,-0.133009 -0.05063,-0.193268 0.02159,-0.05171 0.05787,-0.188738 0.0806,-0.304372 0.04794,-0.243945 -0.04768,-0.455913 -0.246983,-0.546732 -0.131684,-0.06001 -0.158039,-0.16027 -0.06614,-0.252179 0.04073,-0.04074 0.02572,-0.120837 -0.0527,-0.283185 -0.126054,-0.260926 -0.136208,-0.347198 -0.04391,-0.378268 0.05116,-0.01721 0.04996,-0.0414 -0.0067,-0.11007 -0.05262,-0.06375 -0.06567,-0.183075 -0.04599,-0.428395 0.019,-0.236622 0.0075,-0.356278 -0.03824,-0.394288 -0.0462,-0.03835 -0.08155,-0.03477 -0.118327,0.01189 -0.05726,0.07262 -0.138226,0.646331 -0.130726,0.925518 0.0026,0.09644 -0.04128,0.250476 -0.09714,0.342095 -0.05586,0.09163 -0.101168,0.230593 -0.101273,0.309023 -1.11e-4,0.07844 -0.04467,0.184916 -0.09869,0.236676 -0.134354,0.128736 -0.223648,0.430369 -0.218049,0.734833 0.01101,0.590336 -0.147398,1.073398 -0.412846,1.259344 -0.128146,0.08976 -0.144038,0.191474 -0.04288,0.275433 0.05112,0.04236 0.06391,0.180548 0.04908,0.519343 -0.02088,0.476516 -0.08593,0.698143 -0.205134,0.698146 -0.104541,0 -0.228898,-0.284687 -0.228898,-0.52348 0,-0.117162 -0.01561,-0.212905 -0.03411,-0.212905 -0.07056,0 -0.173046,0.189767 -0.174645,0.322976 -0.0021,0.165128 -0.122473,0.226384 -0.281604,0.142626 -0.170254,-0.08962 -0.184957,-0.134238 -0.15656,-0.485756 0.01752,-0.216972 0.05656,-0.34838 0.119358,-0.40359 0.157965,-0.13887 0.177978,-0.298281 0.05735,-0.451648 -0.05986,-0.0761 -0.108509,-0.200524 -0.108509,-0.276983 0,-0.07646 -0.03203,-0.185808 -0.0713,-0.242878 -0.05522,-0.08023 -0.07299,-0.408235 -0.07699,-1.445378 -0.0028,-0.737783 -0.02751,-1.412322 -0.05528,-1.499121 -0.02779,-0.0868 -0.121471,-0.418124 -0.208231,-0.736384 -0.08676,-0.318259 -0.233049,-0.741364 -0.325009,-0.939986 -0.16662,-0.359887 -0.183549,-0.539462 -0.07957,-0.857822 0.027,-0.08263 0.0068,-0.141109 -0.07285,-0.209287 -0.06067,-0.05196 -0.110057,-0.137912 -0.110057,-0.191202 0,-0.09045 -0.01423,-0.08886 -0.21185,0.02222 -0.247104,0.138899 -0.130806,0.222089 -0.912498,-0.653185 -0.457208,-0.511953 -0.506373,-0.587382 -0.506373,-0.773074 0,-0.113135 0.02604,-0.221647 0.05787,-0.241327 0.03346,-0.02068 0.04487,-0.101211 0.02687,-0.1912 -0.01714,-0.08566 -0.0058,-0.203738 0.02532,-0.261998 0.04577,-0.08552 0.0359,-0.125705 -0.0527,-0.208254 -0.08049,-0.07499 -0.110059,-0.166445 -0.110059,-0.343646 0,-0.154754 -0.04033,-0.3070432 -0.112123,-0.4232263 -0.102948,-0.1665736 -0.10845,-0.2227552 -0.0713,-0.6898751 0.02225,-0.2797715 0.04817,-0.7571154 0.05787,-1.0609079 0.02744,-0.8585285 0.04282,-0.9771146 0.140025,-1.0743438 0.118723,-0.1187407 0.114799,-0.1717253 -0.01912,-0.2433937 -0.07897,-0.04228 -0.10159,-0.091479 -0.07957,-0.1731146 C 54.290998,5.8406224 54.256073,5.7773869 54.129503,5.67273 53.974899,5.544903 53.962441,5.5111753 53.979659,5.2779252 54.022433,4.6981991 53.960821,4.5515796 53.584379,4.3379393 53.408782,4.2382801 53.381137,4.1985365 53.392166,4.0604389 53.401565,3.9430538 53.378808,3.8905342 53.308455,3.8682044 53.255321,3.8513344 53.155641,3.7781854 53.087307,3.7054247 52.953,3.5624486 52.918645,3.3210825 52.927645,2.5871557 c 0.0028,-0.2310669 -0.02363,-0.43874 -0.06665,-0.5208942 z M 0,44.767899 V 46.0691 l 219.97616,0.0016 v -1.300684 z" />
    <g
       aria-label="IT Solutions Dresden GmbH"
       id="text6084"
       style="font-weight:bold;font-size:14.1111px;line-height:1.25;font-family:Ubuntu;-inkscape-font-specification:'Ubuntu Bold';fill:#000080;stroke-width:0.251664">
      <path
         d="M 18.525586,42.825325 V 32.146234 h 2.235864 v 10.679091 z"
         style="font-size:15.5222px"
         id="path1430" />
      <path
         d="m 27.658521,33.874291 v 8.951034 h -2.235863 v -8.951034 h -3.448536 v -1.728057 h 9.140514 v 1.728057 z"
         style="font-size:15.5222px"
         id="path1432" />
      <path
         d="m 45.340793,39.74817 q 0,1.568894 -1.167197,2.402606 -1.159617,0.826133 -3.41064,0.826133 -2.053963,0 -3.221159,-0.727603 -1.167197,-0.727603 -1.500682,-2.205547 l 2.160072,-0.356222 q 0.219797,0.84887 0.85645,1.235409 0.636652,0.37896 1.765953,0.37896 2.341972,0 2.341972,-1.424889 0,-0.454752 -0.272851,-0.750341 -0.265272,-0.295589 -0.75792,-0.492648 -0.485068,-0.197059 -1.872062,-0.47749 -1.197513,-0.28043 -1.667424,-0.447172 -0.46991,-0.174322 -0.84887,-0.401698 -0.37896,-0.234955 -0.644232,-0.560861 -0.265272,-0.325905 -0.416856,-0.765499 -0.144004,-0.439593 -0.144004,-1.008033 0,-1.447627 1.083825,-2.213126 1.091405,-0.773079 3.168105,-0.773079 1.98575,0 2.978625,0.621495 1.000455,0.621494 1.288464,2.053963 l -2.167651,0.295588 q -0.166742,-0.689707 -0.682128,-1.03835 -0.507806,-0.348643 -1.462785,-0.348643 -2.031225,0 -2.031225,1.273305 0,0.416856 0.212217,0.682128 0.219797,0.265272 0.644232,0.454752 0.424435,0.181901 1.720478,0.462331 1.538578,0.325906 2.197968,0.606336 0.66697,0.272852 1.053509,0.644232 0.386539,0.363802 0.591177,0.879187 0.204639,0.507807 0.204639,1.174776 z"
         style="font-size:15.5222px"
         id="path1434" />
      <path
         d="m 54.82237,38.717399 q 0,1.993329 -1.106563,3.130209 -1.106563,1.129301 -3.061996,1.129301 -1.917537,0 -3.008942,-1.13688 -1.091405,-1.13688 -1.091405,-3.12263 0,-1.978171 1.091405,-3.107471 1.091405,-1.13688 3.054417,-1.13688 2.008488,0 3.061997,1.098984 1.061087,1.091404 1.061087,3.145367 z m -2.228284,0 q 0,-1.462785 -0.47749,-2.122176 -0.477489,-0.65939 -1.386993,-0.65939 -1.940275,0 -1.940275,2.781566 0,1.371835 0.46991,2.091859 0.47749,0.712445 1.371835,0.712445 1.963013,0 1.963013,-2.804304 z"
         style="font-size:15.5222px"
         id="path1436" />
      <path
         d="M 56.512533,42.825325 V 31.577794 h 2.129755 v 11.247531 z"
         style="font-size:15.5222px"
         id="path1438" />
      <path
         d="m 62.833585,34.624632 v 4.600573 q 0,2.160072 1.455206,2.160072 0.773079,0 1.242989,-0.65939 0.47749,-0.66697 0.47749,-1.70532 v -4.395935 h 2.129755 v 6.366527 q 0,1.045929 0.06063,1.834166 H 66.16843 Q 66.07748,41.73392 66.07748,41.195797 h -0.0379 q -0.424435,0.932242 -1.083825,1.356677 -0.651811,0.424435 -1.553736,0.424435 -1.303622,0 -2.000908,-0.795816 -0.697287,-0.803395 -0.697287,-2.349552 v -5.206909 z"
         style="font-size:15.5222px"
         id="path1440" />
      <path
         d="m 72.406111,42.961751 q -0.939821,0 -1.447627,-0.507807 -0.507807,-0.515385 -0.507807,-1.553736 v -4.835529 h -1.03835 v -1.440047 h 1.144459 l 0.66697,-1.925117 h 1.333939 v 1.925117 h 1.553735 v 1.440047 h -1.553735 v 4.25951 q 0,0.598757 0.227376,0.886767 0.227376,0.28043 0.704865,0.28043 0.250114,0 0.712445,-0.106109 v 1.318781 q -0.788237,0.257693 -1.79627,0.257693 z"
         style="font-size:15.5222px"
         id="path1442" />
      <path
         d="m 75.475686,33.146688 v -1.568894 h 2.129755 v 1.568894 z m 0,9.678637 v -8.200693 h 2.129755 v 8.200693 z"
         style="font-size:15.5222px"
         id="path1444" />
      <path
         d="m 87.579668,38.717399 q 0,1.993329 -1.106563,3.130209 -1.106563,1.129301 -3.061997,1.129301 -1.917537,0 -3.008942,-1.13688 -1.091404,-1.13688 -1.091404,-3.12263 0,-1.978171 1.091404,-3.107471 1.091405,-1.13688 3.054418,-1.13688 2.008487,0 3.061996,1.098984 1.061088,1.091404 1.061088,3.145367 z m -2.228285,0 q 0,-1.462785 -0.477489,-2.122176 -0.47749,-0.65939 -1.386994,-0.65939 -1.940275,0 -1.940275,2.781566 0,1.371835 0.469911,2.091859 0.477489,0.712445 1.371835,0.712445 1.963012,0 1.963012,-2.804304 z"
         style="font-size:15.5222px"
         id="path1446" />
      <path
         d="m 94.582849,42.825325 v -4.600574 q 0,-2.160072 -1.462786,-2.160072 -0.773078,0 -1.250568,0.66697 -0.46991,0.65939 -0.46991,1.697741 v 4.395935 H 89.26983 v -6.366527 q 0,-0.65939 -0.02274,-1.076246 -0.01516,-0.424436 -0.0379,-0.75792 h 2.031225 q 0.02274,0.144004 0.06063,0.773078 0.0379,0.621494 0.0379,0.856449 h 0.03032 q 0.432015,-0.93982 1.083826,-1.364255 0.651811,-0.424436 1.553736,-0.424436 1.303622,0 2.000908,0.803396 0.697286,0.803395 0.697286,2.349551 v 5.20691 z"
         style="font-size:15.5222px"
         id="path1448" />
      <path
         d="m 105.66363,40.430298 q 0,1.189934 -0.97771,1.872062 -0.97014,0.674549 -2.69062,0.674549 -1.69016,0 -2.592084,-0.530544 -0.894345,-0.538123 -1.189934,-1.667424 l 1.872058,-0.28043 q 0.15917,0.583598 0.54571,0.826133 0.39411,0.242534 1.36425,0.242534 0.89435,0 1.30362,-0.227376 0.40928,-0.227376 0.40928,-0.712445 0,-0.394118 -0.33348,-0.621494 -0.32591,-0.234955 -1.11415,-0.394118 -1.80385,-0.356223 -2.432919,-0.659391 -0.629073,-0.310747 -0.962558,-0.795816 -0.325905,-0.492648 -0.325905,-1.205092 0,-1.174776 0.901924,-1.826587 0.909508,-0.659391 2.569348,-0.659391 1.46279,0 2.34955,0.56844 0.89435,0.56844 1.11414,1.644687 l -1.88722,0.197059 q -0.0909,-0.500227 -0.44717,-0.742762 -0.35622,-0.250113 -1.1293,-0.250113 -0.75792,0 -1.13688,0.197059 -0.37896,0.18948 -0.37896,0.644232 0,0.356222 0.28801,0.56844 0.29559,0.204638 0.9853,0.341064 0.96255,0.197059 1.70532,0.409276 0.75034,0.204639 1.19751,0.492648 0.45475,0.28801 0.72002,0.742762 0.27285,0.447173 0.27285,1.152038 z"
         style="font-size:15.5222px"
         id="path1450" />
      <path
         d="m 121.17068,37.406198 q 0,1.652265 -0.65181,2.887675 -0.64423,1.22783 -1.83417,1.879641 -1.18235,0.651811 -2.71335,0.651811 H 111.6512 V 32.146234 h 3.8654 q 2.69819,0 4.17613,1.364255 1.47795,1.356677 1.47795,3.895709 z m -2.25102,0 q 0,-1.720478 -0.89435,-2.622403 -0.89434,-0.909504 -2.55419,-0.909504 h -1.58405 v 7.222977 h 1.8948 q 1.44005,0 2.28892,-0.992875 0.84887,-0.992876 0.84887,-2.698195 z"
         style="font-size:15.5222px"
         id="path1452" />
      <path
         d="m 122.90631,42.825325 v -6.275577 q 0,-0.674549 -0.0227,-1.121721 -0.0152,-0.454752 -0.0379,-0.803395 h 2.03122 q 0.0227,0.136425 0.0606,0.833712 0.0379,0.689707 0.0379,0.917083 h 0.0303 q 0.31075,-0.864029 0.55328,-1.212672 0.24254,-0.356223 0.57602,-0.522965 0.33349,-0.174322 0.83371,-0.174322 0.40928,0 0.65939,0.113688 v 1.781112 q -0.51538,-0.113688 -0.9095,-0.113688 -0.79582,0 -1.24299,0.644232 -0.43959,0.644232 -0.43959,1.909958 v 4.024555 z"
         style="font-size:15.5222px"
         id="path1454" />
      <path
         d="m 132.30452,42.976909 q -1.84932,0 -2.8422,-1.091405 -0.99287,-1.098984 -0.99287,-3.198422 0,-2.031225 1.00803,-3.12263 1.00804,-1.091404 2.85736,-1.091404 1.76595,0 2.6982,1.174776 0.93224,1.167196 0.93224,3.425797 v 0.06063 h -5.25997 q 0,1.197514 0.4396,1.811429 0.44717,0.606336 1.26572,0.606336 1.1293,0 1.42489,-0.977717 l 2.00849,0.174321 q -0.87161,2.228285 -3.53949,2.228285 z m 0,-7.162343 q -0.75034,0 -1.15961,0.522965 -0.4017,0.522964 -0.42444,1.462785 h 3.18327 q -0.0606,-0.992875 -0.47749,-1.485523 -0.41686,-0.500227 -1.12173,-0.500227 z"
         style="font-size:15.5222px"
         id="path1456" />
      <path
         d="m 144.49187,40.430298 q 0,1.189934 -0.97771,1.872062 -0.97014,0.674549 -2.69062,0.674549 -1.69016,0 -2.59208,-0.530544 -0.89435,-0.538123 -1.18994,-1.667424 l 1.87206,-0.28043 q 0.15917,0.583598 0.54571,0.826133 0.39411,0.242534 1.36425,0.242534 0.89435,0 1.30362,-0.227376 0.40928,-0.227376 0.40928,-0.712445 0,-0.394118 -0.33348,-0.621494 -0.32591,-0.234955 -1.11415,-0.394118 -1.80385,-0.356223 -2.43292,-0.659391 -0.62907,-0.310747 -0.96256,-0.795816 -0.3259,-0.492648 -0.3259,-1.205092 0,-1.174776 0.90192,-1.826587 0.90951,-0.659391 2.56935,-0.659391 1.46279,0 2.34955,0.56844 0.89435,0.56844 1.11414,1.644687 l -1.88722,0.197059 q -0.0909,-0.500227 -0.44717,-0.742762 -0.35622,-0.250113 -1.1293,-0.250113 -0.75792,0 -1.13688,0.197059 -0.37896,0.18948 -0.37896,0.644232 0,0.356222 0.28801,0.56844 0.29559,0.204638 0.9853,0.341064 0.96255,0.197059 1.70532,0.409276 0.75034,0.204639 1.19751,0.492648 0.45475,0.28801 0.72002,0.742762 0.27285,0.447173 0.27285,1.152038 z"
         style="font-size:15.5222px"
         id="path1458" />
      <path
         d="m 151.52537,42.825325 q -0.0303,-0.113688 -0.0758,-0.56844 -0.0379,-0.462331 -0.0379,-0.765499 h -0.0303 q -0.6897,1.485523 -2.6224,1.485523 -1.43247,0 -2.21312,-1.114142 -0.78066,-1.121722 -0.78066,-3.130209 0,-2.038805 0.81855,-3.145368 0.82613,-1.114142 2.33439,-1.114142 0.87161,0 1.50069,0.363801 0.63665,0.363802 0.97771,1.083826 h 0.0152 l -0.0152,-1.349098 v -2.993783 h 2.12976 v 9.45884 q 0,0.75792 0.0606,1.788691 z m -0.0985,-4.145822 q 0,-1.32636 -0.44717,-2.038804 -0.4396,-0.720024 -1.30363,-0.720024 -0.85645,0 -1.2733,0.697286 -0.41686,0.689707 -0.41686,2.114597 0,2.789145 1.67501,2.789145 0.84129,0 1.30362,-0.735183 0.46233,-0.742761 0.46233,-2.107017 z"
         style="font-size:15.5222px"
         id="path1460" />
      <path
         d="m 159.05151,42.976909 q -1.84932,0 -2.8422,-1.091405 -0.99287,-1.098984 -0.99287,-3.198422 0,-2.031225 1.00803,-3.12263 1.00803,-1.091404 2.85736,-1.091404 1.76595,0 2.69819,1.174776 0.93224,1.167196 0.93224,3.425797 v 0.06063 h -5.25996 q 0,1.197514 0.43959,1.811429 0.44718,0.606336 1.26573,0.606336 1.1293,0 1.42489,-0.977717 l 2.00849,0.174321 q -0.87161,2.228285 -3.53949,2.228285 z m 0,-7.162343 q -0.75034,0 -1.15962,0.522965 -0.40169,0.522964 -0.42443,1.462785 h 3.18326 q -0.0606,-0.992875 -0.47749,-1.485523 -0.41685,-0.500227 -1.12172,-0.500227 z"
         style="font-size:15.5222px"
         id="path1462" />
      <path
         d="m 169.63965,42.825325 v -4.600574 q 0,-2.160072 -1.46279,-2.160072 -0.77307,0 -1.25056,0.66697 -0.46991,0.65939 -0.46991,1.697741 v 4.395935 h -2.12976 v -6.366527 q 0,-0.65939 -0.0227,-1.076246 -0.0152,-0.424436 -0.0379,-0.75792 h 2.03122 q 0.0227,0.144004 0.0606,0.773078 0.0379,0.621494 0.0379,0.856449 h 0.0303 q 0.43201,-0.93982 1.08382,-1.364255 0.65182,-0.424436 1.55374,-0.424436 1.30362,0 2.00091,0.803396 0.69729,0.803395 0.69729,2.349551 v 5.20691 z"
         style="font-size:15.5222px"
         id="path1464" />
      <path
         d="m 179.977,41.953026 q 0.47543,0 0.92191,-0.136425 0.44649,-0.14056 0.6904,-0.355534 v -0.806153 h -1.42214 v -0.901237 h 2.53835 v 2.141472 q -0.46302,0.475423 -1.20716,0.744141 -0.74001,0.268717 -1.55443,0.268717 -1.42214,0 -2.18695,-0.785482 -0.76481,-0.789616 -0.76481,-2.236557 0,-1.438672 0.76895,-2.203484 0.76894,-0.768945 2.21175,-0.768945 2.05052,0 2.60863,1.51722 l -1.12448,0.338998 q -0.1819,-0.44235 -0.57051,-0.669727 -0.38861,-0.227376 -0.91364,-0.227376 -0.8599,0 -1.30638,0.520898 -0.44649,0.520899 -0.44649,1.492416 0,0.988054 0.45889,1.529623 0.46302,0.537435 1.29811,0.537435 z"
         style="font-size:8.46667px"
         id="path1466" />
      <path
         d="m 186.45516,42.825325 v -2.509409 q 0,-1.178223 -0.67799,-1.178223 -0.3514,0 -0.57464,0.359668 -0.21911,0.359669 -0.21911,0.930177 v 2.397787 h -1.16169 v -3.472658 q 0,-0.359668 -0.0124,-0.587044 -0.008,-0.231511 -0.0207,-0.413412 h 1.10794 q 0.0124,0.07855 0.0331,0.42168 0.0207,0.338998 0.0207,0.467155 h 0.0165 q 0.21498,-0.51263 0.5333,-0.744141 0.32246,-0.23151 0.76895,-0.23151 1.02526,0 1.24437,0.975651 h 0.0248 q 0.22738,-0.520898 0.54571,-0.748275 0.31832,-0.227376 0.81028,-0.227376 0.65319,0 0.99632,0.446484 0.34314,0.442351 0.34314,1.273308 v 2.840138 h -1.15342 v -2.509409 q 0,-1.178223 -0.678,-1.178223 -0.339,0 -0.5581,0.33073 -0.21498,0.326595 -0.23565,0.905371 v 2.451531 z"
         style="font-size:8.46667px"
         id="path1468" />
      <path
         d="m 195.5833,40.572232 q 0,1.107943 -0.44649,1.723926 -0.44235,0.611849 -1.26917,0.611849 -0.47543,0 -0.82269,-0.206705 -0.34727,-0.206706 -0.5333,-0.595313 h -0.008 q 0,0.144694 -0.0207,0.396875 -0.0165,0.252181 -0.0372,0.322461 h -1.12861 q 0.0331,-0.384473 0.0331,-1.021127 v -5.113901 h 1.16169 v 1.711524 l -0.0165,0.727604 h 0.0165 q 0.39274,-0.859896 1.4304,-0.859896 0.79375,0 1.21543,0.603581 0.42582,0.599447 0.42582,1.699122 z m -1.2113,0 q 0,-0.760678 -0.22324,-1.128614 -0.22325,-0.367936 -0.6904,-0.367936 -0.47129,0 -0.71934,0.396875 -0.24391,0.392741 -0.24391,1.136882 0,0.711068 0.23978,1.107943 0.24391,0.396875 0.7152,0.396875 0.92191,0 0.92191,-1.542025 z"
         style="font-size:8.46667px"
         id="path1470" />
      <path
         d="m 200.25485,42.825325 v -2.497006 h -2.53835 v 2.497006 h -1.21956 v -5.82497 h 1.21956 v 2.319239 h 2.53835 v -2.319239 h 1.21956 v 5.82497 z"
         style="font-size:8.46667px"
         id="path1472" />
    </g>
  </g>
</svg>
